# xmcd
# 
# Track frame offsets:
#     150
#     96871
#     128920
#     158539
#     203726
#     245851
#     287284
# 
# Disc length: 4559
# 
# Revision: 0
# Processed by: cddbd v1.5.2PL0 Copyright (c) Steve Scherf et al.
# Submitted via: fre:ac v1.0.17
# 
DISCID=5911cd07
DTITLE=Meine kleinen Monster - Glucksi zieht nach Monsterstadt
DYEAR=2013
DGENRE=Kinder
TTITLE0=Glucksi zieht nach Monsterstadt
TTITLE1=Ekki, das tollpatschige Monster
TTITLE2=Bammel, das ängstliche Monster
TTITLE3=Dösi, das faule Monster
TTITLE4=Winz, das kleine Monster
TTITLE5=Toni, das starke Monster
TTITLE6=Kruspi, das verfressene Monster
EXTD=
EXTT0=
EXTT1=
EXTT2=
EXTT3=
EXTT4=
EXTT5=
EXTT6=
PLAYORDER=
